<?xml version="1.0" encoding="utf-8"?>
<!-- Generator: Adobe Illustrator 23.0.3, SVG Export Plug-In . SVG Version: 6.00 Build 0)  -->
<svg version="1.1" xmlns="http://www.w3.org/2000/svg" xmlns:xlink="http://www.w3.org/1999/xlink" x="0px" y="0px"
	 viewBox="0 0 2493 763" style="enable-background:new 0 0 2493 763;" xml:space="preserve">
<style type="text/css">
	.st0{fill:url(#SVGID_1_);}
	.st1{fill:url(#SVGID_2_);}
	.st2{fill:url(#SVGID_3_);}
	.st3{fill:url(#SVGID_4_);}
	.st4{fill:#5E658E;}
	.st5{fill:#388A8E;}
	.st6{fill:#4EB77D;}
	.st7{fill:#5BAA48;}
	.st8{fill:#BCB839;}
	.st9{display:none;}
	.st10{display:inline;fill:#5E658E;}
	.st11{font-family:'OpenSans-Bold';}
	.st12{font-size:80px;}
	.st13{display:inline;fill:#388A8E;}
	.st14{display:inline;fill:#4EB77D;}
	.st15{display:inline;fill:#5BAA48;}
	.st16{display:inline;fill:#BCB839;}
</style>
<g id="Guides">
</g>
<g id="Hexagons">
</g>
<g id="Links">
	<linearGradient id="SVGID_1_" gradientUnits="userSpaceOnUse" x1="1762" y1="621" x2="2090" y2="621">
		<stop  offset="1.598337e-08" style="stop-color:#5BAA48"/>
		<stop  offset="1" style="stop-color:#BCB839"/>
	</linearGradient>
	<rect x="1762" y="607.5" class="st0" width="328" height="27"/>
	<linearGradient id="SVGID_2_" gradientUnits="userSpaceOnUse" x1="1329" y1="621" x2="1658" y2="621">
		<stop  offset="1.598337e-08" style="stop-color:#4EB77D"/>
		<stop  offset="1" style="stop-color:#5BAA48"/>
	</linearGradient>
	<rect x="1329" y="607.5" class="st1" width="329" height="27"/>
	<linearGradient id="SVGID_3_" gradientUnits="userSpaceOnUse" x1="899" y1="621" x2="1225" y2="621">
		<stop  offset="1.598337e-08" style="stop-color:#388A8E"/>
		<stop  offset="1" style="stop-color:#4EB77D"/>
	</linearGradient>
	<rect x="899" y="607.5" class="st2" width="326" height="27"/>
	<linearGradient id="SVGID_4_" gradientUnits="userSpaceOnUse" x1="466" y1="621" x2="793" y2="621">
		<stop  offset="1.598337e-08" style="stop-color:#5E658E"/>
		<stop  offset="1" style="stop-color:#388A8E"/>
	</linearGradient>
	<rect x="466" y="607.5" class="st3" width="327" height="27"/>
</g>
<g id="Circles">
	<path class="st4" d="M463.31,586.61l-44.56-25.73c-3.09-1.79-6.91-1.79-10,0l-44.56,25.73c-3.09,1.79-5,5.09-5,8.66v51.45
		c0,3.57,1.91,6.87,5,8.66l44.56,25.73c3.09,1.79,6.91,1.79,10,0l44.56-25.73c3.09-1.79,5-5.09,5-8.66v-51.45
		C468.31,591.7,466.4,588.4,463.31,586.61z M413.75,660.95c-22.06,0-39.95-17.89-39.95-39.95s17.89-39.95,39.95-39.95
		S453.7,598.94,453.7,621S435.81,660.95,413.75,660.95z"/>
	<path class="st5" d="M895.31,586.61l-44.56-25.73c-3.09-1.79-6.91-1.79-10,0l-44.56,25.73c-3.09,1.79-5,5.09-5,8.66v51.45
		c0,3.57,1.91,6.87,5,8.66l44.56,25.73c3.09,1.79,6.91,1.79,10,0l44.56-25.73c3.09-1.79,5-5.09,5-8.66v-51.45
		C900.31,591.7,898.4,588.4,895.31,586.61z M845.75,660.95c-22.06,0-39.95-17.89-39.95-39.95s17.89-39.95,39.95-39.95
		S885.7,598.94,885.7,621S867.81,660.95,845.75,660.95z"/>
	<path class="st6" d="M1327.31,586.61l-44.56-25.73c-3.09-1.79-6.91-1.79-10,0l-44.56,25.73c-3.09,1.79-5,5.09-5,8.66v51.45
		c0,3.57,1.91,6.87,5,8.66l44.56,25.73c3.09,1.79,6.91,1.79,10,0l44.56-25.73c3.09-1.79,5-5.09,5-8.66v-51.45
		C1332.31,591.7,1330.4,588.4,1327.31,586.61z M1277.75,660.95c-22.06,0-39.95-17.89-39.95-39.95s17.89-39.95,39.95-39.95
		s39.95,17.89,39.95,39.95S1299.81,660.95,1277.75,660.95z"/>
	<path class="st7" d="M1759.31,586.61l-44.56-25.73c-3.09-1.79-6.91-1.79-10,0l-44.56,25.73c-3.09,1.79-5,5.09-5,8.66v51.45
		c0,3.57,1.91,6.87,5,8.66l44.56,25.73c3.09,1.79,6.91,1.79,10,0l44.56-25.73c3.09-1.79,5-5.09,5-8.66v-51.45
		C1764.31,591.7,1762.4,588.4,1759.31,586.61z M1709.75,660.95c-22.06,0-39.95-17.89-39.95-39.95s17.89-39.95,39.95-39.95
		s39.95,17.89,39.95,39.95S1731.81,660.95,1709.75,660.95z"/>
	<path class="st8" d="M2191.81,586.61l-44.56-25.73c-3.09-1.79-6.91-1.79-10,0l-44.56,25.73c-3.09,1.79-5,5.09-5,8.66v51.45
		c0,3.57,1.91,6.87,5,8.66l44.56,25.73c3.09,1.79,6.91,1.79,10,0l44.56-25.73c3.09-1.79,5-5.09,5-8.66v-51.45
		C2196.81,591.7,2194.9,588.4,2191.81,586.61z M2142.25,660.95c-22.06,0-39.95-17.89-39.95-39.95s17.89-39.95,39.95-39.95
		s39.95,17.89,39.95,39.95S2164.31,660.95,2142.25,660.95z"/>
</g>
<g id="Rects">
	<path class="st4" d="M414,576L414,576c-4.95,0-9-4.05-9-9v-18c0-4.95,4.05-9,9-9l0,0c4.95,0,9,4.05,9,9v18
		C423,571.95,418.95,576,414,576z"/>
	<path class="st5" d="M846,576L846,576c-4.95,0-9-4.05-9-9v-18c0-4.95,4.05-9,9-9l0,0c4.95,0,9,4.05,9,9v18
		C855,571.95,850.95,576,846,576z"/>
	<path class="st6" d="M1278,576L1278,576c-4.95,0-9-4.05-9-9v-18c0-4.95,4.05-9,9-9l0,0c4.95,0,9,4.05,9,9v18
		C1287,571.95,1282.95,576,1278,576z"/>
	<path class="st7" d="M1710,576L1710,576c-4.95,0-9-4.05-9-9v-18c0-4.95,4.05-9,9-9l0,0c4.95,0,9,4.05,9,9v18
		C1719,571.95,1714.95,576,1710,576z"/>
	<path class="st8" d="M2142,576L2142,576c-4.95,0-9-4.05-9-9v-18c0-4.95,4.05-9,9-9l0,0c4.95,0,9,4.05,9,9v18
		C2151,571.95,2146.95,576,2142,576z"/>
</g>
<g id="Text_copy">
	<g>
		<path class="st4" d="M111.78,133.9c-3.22-3.22-6.93-4.51-11.12-3.85c-4.19,0.65-8.45,3.15-12.77,7.47c-9,9-10.13,16.88-3.37,23.64
			c2.84,2.84,6.98,5.56,12.43,8.18l-7.18,7.18c-4.7-1.93-9.09-4.94-13.18-9.03c-5.87-5.88-8.59-12.15-8.13-18.82
			c0.45-6.68,4.01-13.35,10.68-20.01c4.2-4.2,8.64-7.11,13.33-8.74c4.69-1.63,9.3-1.86,13.85-0.68c4.55,1.18,8.75,3.69,12.6,7.54
			c3.92,3.92,6.91,8.81,8.98,14.67l-9.72,4.2c-0.79-2.23-1.69-4.37-2.68-6.44C114.49,137.14,113.26,135.37,111.78,133.9z"/>
		<path class="st4" d="M115.79,205.57l2.57-5.83l-0.22-0.22c-3.21,0.37-5.9,0.15-8.09-0.66c-2.19-0.81-4.49-2.42-6.9-4.83
			c-2.97-2.97-4.45-6.15-4.46-9.54c-0.01-3.4,1.55-6.66,4.68-9.79c3.28-3.28,6.84-4.55,10.69-3.81c3.85,0.74,8.17,3.33,12.95,7.79
			l5.52,5.19l1.35-1.35c3.13-3.13,3.09-6.3-0.11-9.5c-2.47-2.47-6.11-4.62-10.94-6.46l2.9-8.48c5.41,1.69,10.28,4.7,14.61,9.03
			c4.14,4.14,6.42,8.22,6.82,12.24c0.4,4.01-1.23,7.86-4.92,11.55l-20.58,20.58L115.79,205.57z M127.61,188.78l-3.37-3.15
			c-2.52-2.38-4.79-3.76-6.79-4.14c-2.01-0.39-3.84,0.25-5.5,1.91c-2.38,2.38-2.2,4.93,0.52,7.65c1.95,1.95,4.07,2.95,6.37,3
			c2.29,0.05,4.37-0.86,6.23-2.72L127.61,188.78z"/>
		<path class="st4" d="M161.06,232.51c-3.17,3.17-6.68,4.48-10.54,3.94c-3.86-0.54-7.98-3.01-12.36-7.39
			c-2.25-2.25-4.01-4.31-5.29-6.2c-1.28-1.89-2.32-3.82-3.11-5.79l6.96-6.96c0.83,2.3,1.98,4.68,3.44,7.14
			c1.46,2.46,2.94,4.43,4.43,5.93c3.06,3.06,5.47,3.7,7.24,1.93c0.66-0.66,1-1.4,1.01-2.22c0.01-0.82-0.22-1.99-0.69-3.51
			c-0.47-1.52-1.18-3.46-2.14-5.81c-1.38-3.37-2.21-6.04-2.47-8c-0.27-1.96-0.11-3.74,0.48-5.35c0.59-1.6,1.69-3.2,3.29-4.8
			c2.74-2.74,5.93-3.8,9.56-3.18c3.63,0.63,7.39,2.89,11.3,6.79c3.72,3.72,6.53,8.15,8.42,13.29l-8.62,3.54
			c-0.88-2.21-1.79-4.2-2.71-5.97c-0.92-1.77-2.08-3.35-3.48-4.75c-2.49-2.49-4.4-3.06-5.75-1.71c-0.76,0.76-1.01,1.81-0.76,3.16
			c0.25,1.35,1.18,3.93,2.8,7.72c1.44,3.39,2.29,6.07,2.57,8.04c0.28,1.97,0.13,3.78-0.44,5.41
			C163.64,229.39,162.59,230.98,161.06,232.51z"/>
		<path class="st4" d="M171.89,262.78c-4.97-4.97-7.49-10.23-7.54-15.77c-0.06-5.54,2.43-10.83,7.46-15.85
			c5.17-5.17,10.47-7.88,15.88-8.12c5.41-0.24,10.4,1.92,14.97,6.49c4.36,4.36,6.52,9,6.46,13.92c-0.06,4.92-2.27,9.57-6.66,13.95
			l-4.09,4.09l-19.92-19.92c-2.3,2.49-3.46,5.06-3.48,7.73c-0.02,2.67,1.17,5.2,3.56,7.6c1.86,1.86,3.81,3.43,5.86,4.7
			s4.39,2.38,7.04,3.34l-6.52,6.52c-2.21-0.74-4.33-1.76-6.37-3.08C176.52,267.05,174.3,265.19,171.89,262.78z M196.72,235.57
			c-1.79-1.79-3.75-2.62-5.9-2.5s-4.33,1.15-6.56,3.08l11.82,11.82c2.04-2.12,3.11-4.27,3.19-6.45
			C199.36,239.34,198.51,237.36,196.72,235.57z"/>
		<path class="st4" d="M234.23,324.02l-8.42-8.42l18.04-18.04c2.23-2.23,3.53-4.27,3.89-6.13c0.37-1.86-0.25-3.59-1.85-5.19
			c-2.15-2.15-4.51-2.93-7.07-2.32c-2.56,0.61-5.65,2.73-9.28,6.35L215,304.79l-8.42-8.42l30.88-30.88l6.44,6.44l-2.82,5.08
			l0.47,0.47c2.25-0.59,4.55-0.5,6.92,0.26c2.37,0.76,4.56,2.16,6.59,4.18c4.62,4.62,6.24,9.26,4.86,13.92l0.75,0.75
			c2.27-0.61,4.6-0.5,7,0.32c2.4,0.82,4.62,2.24,6.64,4.27c3.5,3.5,5.25,7.04,5.25,10.63s-1.98,7.37-5.94,11.32l-20.14,20.14
			l-8.45-8.45l18.04-18.04c2.23-2.23,3.53-4.27,3.89-6.13c0.37-1.86-0.25-3.59-1.85-5.19c-2.06-2.06-4.34-2.87-6.84-2.42
			c-2.5,0.45-5.34,2.28-8.55,5.48L234.23,324.02z"/>
		<path class="st4" d="M281.74,371.52l2.57-5.83l-0.22-0.22c-3.21,0.37-5.9,0.15-8.09-0.66c-2.19-0.81-4.49-2.42-6.91-4.83
			c-2.97-2.96-4.45-6.15-4.46-9.54c-0.01-3.4,1.55-6.66,4.68-9.79c3.28-3.28,6.84-4.55,10.69-3.81c3.85,0.74,8.17,3.33,12.95,7.79
			l5.52,5.19l1.35-1.35c3.13-3.13,3.09-6.3-0.11-9.5c-2.47-2.47-6.11-4.62-10.94-6.46l2.9-8.48c5.41,1.69,10.28,4.71,14.61,9.03
			c4.14,4.14,6.42,8.22,6.82,12.24c0.4,4.02-1.23,7.86-4.92,11.55l-20.58,20.58L281.74,371.52z M293.56,354.73l-3.37-3.15
			c-2.52-2.38-4.79-3.76-6.79-4.14c-2.01-0.39-3.84,0.25-5.5,1.91c-2.38,2.38-2.2,4.93,0.52,7.65c1.95,1.95,4.07,2.95,6.37,3
			c2.29,0.05,4.37-0.86,6.23-2.72L293.56,354.73z"/>
		<path class="st4" d="M321.18,377.38l8.37-1.02l18.04-0.75l9.5,9.5l-25.66,1.13l-4.48,30.49l-9.72-9.72l3.62-21.41l-6.52-0.72
			l-9.61,9.61l-8.42-8.42l42.98-42.98l8.42,8.42l-19.17,19.17l-7.46,6.57L321.18,377.38z"/>
		<path class="st4" d="M339.8,429.58l-8.42-8.42l30.88-30.88l8.42,8.42L339.8,429.58z M369.88,381.94c2.74-2.74,5.64-2.59,8.7,0.47
			s3.21,5.96,0.47,8.7c-1.31,1.31-2.71,1.94-4.2,1.91c-1.49-0.04-3-0.82-4.53-2.35C367.26,387.61,367.12,384.7,369.88,381.94z"/>
		<path class="st4" d="M377.14,466.93l-8.42-8.43l18.04-18.04c2.23-2.23,3.5-4.29,3.83-6.2c0.32-1.91-0.38-3.73-2.11-5.46
			c-2.36-2.36-4.85-3.27-7.47-2.75c-2.62,0.53-5.76,2.61-9.41,6.26l-14.53,14.53l-8.42-8.42l30.88-30.88l6.44,6.44l-2.82,5.08
			l0.47,0.47c2.43-0.55,4.85-0.39,7.26,0.5c2.41,0.88,4.67,2.38,6.77,4.47c3.59,3.59,5.34,7.29,5.26,11.09
			c-0.08,3.8-1.96,7.54-5.62,11.2L377.14,466.93z"/>
		<path class="st4" d="M443.57,471.6l-4.28,4.28l-6.08-3.59c-0.5,2.27-1.6,4.25-3.31,5.97c-3.31,3.31-7.05,4.74-11.21,4.28
			c-4.16-0.46-8.3-2.74-12.4-6.85l-1.44-1.6l-1.1-1.38c-1.53-0.2-2.7,0.1-3.51,0.91c-1.22,1.21-0.28,3.37,2.82,6.46l5.25,5.25
			c3.39,3.39,5.24,6.7,5.57,9.93c0.32,3.23-0.93,6.26-3.74,9.07c-3.61,3.61-7.91,4.9-12.91,3.88s-10.32-4.35-15.95-9.99
			c-4.31-4.31-6.85-8.35-7.62-12.13s0.19-7.02,2.9-9.72c1.86-1.86,4-2.84,6.41-2.93s5.01,0.72,7.79,2.43
			c-0.5-1.23-0.65-2.59-0.46-4.07c0.19-1.48,0.76-2.69,1.7-3.63c1.18-1.18,2.5-1.82,3.96-1.92c1.46-0.1,3.22,0.12,5.26,0.65
			c-0.92-2.32-1.08-4.73-0.48-7.22c0.6-2.5,1.95-4.79,4.05-6.89c3.37-3.37,7.07-4.88,11.1-4.53s8.08,2.56,12.15,6.63
			c0.87,0.87,1.81,1.97,2.84,3.31s1.68,2.22,1.93,2.62L443.57,471.6z M384.49,483c-1.16,1.16-1.52,2.63-1.06,4.41
			c0.45,1.78,1.68,3.67,3.69,5.68c3.02,3.02,5.8,4.97,8.34,5.86s4.53,0.61,5.97-0.83c1.16-1.16,1.45-2.47,0.88-3.92
			c-0.57-1.46-1.92-3.24-4.03-5.36l-4.36-4.36c-1.55-1.55-3.2-2.48-4.97-2.79C387.17,481.36,385.69,481.81,384.49,483z
			 M412.69,460.94c-1.68,1.68-2.62,3.38-2.83,5.12c-0.21,1.74,0.46,3.39,2.03,4.96c1.58,1.58,3.23,2.25,4.94,2.02
			c1.71-0.24,3.41-1.2,5.08-2.87c3.72-3.72,4.05-7.11,0.99-10.16C419.82,456.9,416.41,457.22,412.69,460.94z"/>
	</g>
	<g>
		<path class="st5" d="M715.84,331.33c-6.65,6.65-13.63,9.85-20.95,9.6c-7.32-0.25-14.55-3.95-21.7-11.09l-11.44-11.44l40.38-40.38
			l12.68,12.68c6.59,6.59,9.97,13.45,10.14,20.58C725.12,318.41,722.08,325.09,715.84,331.33z M706.73,322.66
			c8.67-8.67,9.18-16.84,1.52-24.5l-4.56-4.56l-26.3,26.3l3.67,3.67C689.31,331.82,697.87,331.52,706.73,322.66z"/>
		<path class="st5" d="M716.39,374.15c-4.97-4.97-7.49-10.23-7.54-15.77c-0.06-5.54,2.43-10.83,7.46-15.86
			c5.17-5.17,10.47-7.88,15.88-8.12c5.41-0.24,10.4,1.92,14.97,6.49c4.36,4.36,6.52,9,6.46,13.92c-0.06,4.92-2.27,9.57-6.66,13.95
			l-4.09,4.09l-19.92-19.91c-2.3,2.49-3.46,5.06-3.48,7.73c-0.02,2.67,1.17,5.2,3.56,7.6c1.86,1.86,3.81,3.42,5.86,4.7
			c2.04,1.27,4.39,2.38,7.04,3.34l-6.52,6.52c-2.21-0.74-4.33-1.76-6.37-3.08C721.03,378.42,718.8,376.56,716.39,374.15z
			 M741.22,346.94c-1.79-1.79-3.75-2.62-5.9-2.5c-2.15,0.12-4.33,1.15-6.56,3.08l11.82,11.82c2.04-2.12,3.11-4.27,3.19-6.45
			S743.01,348.73,741.22,346.94z"/>
		<path class="st5" d="M767.11,405.42c-3.17,3.17-6.68,4.48-10.54,3.94c-3.86-0.54-7.98-3.01-12.36-7.39
			c-2.25-2.25-4.01-4.31-5.29-6.2s-2.32-3.82-3.11-5.79l6.96-6.96c0.83,2.3,1.98,4.68,3.44,7.14c1.46,2.46,2.94,4.43,4.43,5.92
			c3.06,3.06,5.47,3.7,7.24,1.93c0.66-0.66,1-1.4,1.01-2.22c0.01-0.82-0.22-1.99-0.69-3.51c-0.47-1.52-1.18-3.46-2.14-5.81
			c-1.38-3.37-2.21-6.04-2.47-8c-0.27-1.96-0.11-3.74,0.48-5.34c0.59-1.6,1.69-3.2,3.29-4.81c2.74-2.74,5.93-3.8,9.56-3.18
			c3.63,0.63,7.39,2.89,11.3,6.8c3.72,3.72,6.53,8.15,8.42,13.29l-8.62,3.54c-0.88-2.21-1.79-4.2-2.71-5.97
			c-0.92-1.77-2.08-3.35-3.48-4.75c-2.49-2.49-4.4-3.06-5.75-1.71c-0.76,0.76-1.01,1.81-0.76,3.16c0.25,1.35,1.18,3.93,2.8,7.72
			c1.44,3.39,2.29,6.07,2.57,8.04c0.28,1.97,0.13,3.77-0.44,5.41C769.68,402.3,768.63,403.89,767.11,405.42z"/>
		<path class="st5" d="M772.93,429.58l-8.42-8.42l30.88-30.88l8.42,8.42L772.93,429.58z M803.01,381.94
			c2.74-2.74,5.64-2.59,8.7,0.47s3.21,5.96,0.47,8.7c-1.31,1.31-2.71,1.94-4.2,1.91c-1.49-0.04-3-0.82-4.53-2.35
			C800.4,387.61,800.25,384.7,803.01,381.94z"/>
		<path class="st5" d="M839.53,434.42l-4.28,4.28l-6.08-3.59c-0.5,2.26-1.6,4.25-3.31,5.97c-3.31,3.31-7.05,4.74-11.21,4.28
			c-4.16-0.46-8.3-2.74-12.4-6.85l-1.44-1.6l-1.1-1.38c-1.53-0.2-2.7,0.1-3.51,0.91c-1.22,1.21-0.28,3.37,2.82,6.46l5.25,5.25
			c3.39,3.39,5.24,6.7,5.57,9.93c0.32,3.23-0.93,6.26-3.74,9.07c-3.61,3.61-7.91,4.9-12.91,3.88c-5-1.02-10.32-4.35-15.95-9.99
			c-4.31-4.31-6.85-8.35-7.62-12.13c-0.77-3.78,0.19-7.02,2.9-9.72c1.86-1.86,4-2.84,6.41-2.93s5.01,0.72,7.79,2.43
			c-0.5-1.23-0.65-2.59-0.46-4.07c0.19-1.48,0.76-2.69,1.7-3.63c1.18-1.18,2.5-1.82,3.96-1.92c1.46-0.1,3.22,0.12,5.26,0.65
			c-0.92-2.32-1.08-4.73-0.48-7.22c0.6-2.5,1.95-4.79,4.05-6.89c3.37-3.37,7.07-4.88,11.1-4.53c4.03,0.35,8.08,2.56,12.15,6.63
			c0.87,0.87,1.81,1.97,2.84,3.31c1.03,1.35,1.68,2.22,1.93,2.63L839.53,434.42z M780.45,445.83c-1.16,1.16-1.52,2.63-1.06,4.41
			c0.45,1.78,1.68,3.67,3.69,5.68c3.02,3.02,5.8,4.97,8.34,5.86c2.54,0.88,4.53,0.61,5.97-0.83c1.16-1.16,1.45-2.47,0.88-3.92
			c-0.57-1.46-1.92-3.24-4.03-5.36l-4.36-4.36c-1.55-1.55-3.2-2.48-4.97-2.79C783.13,444.19,781.64,444.63,780.45,445.83z
			 M808.65,423.76c-1.68,1.68-2.62,3.38-2.83,5.13c-0.21,1.74,0.46,3.39,2.03,4.96c1.58,1.58,3.23,2.26,4.94,2.02
			c1.71-0.24,3.41-1.2,5.08-2.87c3.72-3.72,4.05-7.11,0.99-10.17C815.77,419.72,812.37,420.04,808.65,423.76z"/>
		<path class="st5" d="M842.24,498.89l-8.42-8.42l18.04-18.04c2.23-2.23,3.5-4.29,3.83-6.2c0.32-1.91-0.38-3.72-2.11-5.46
			c-2.36-2.36-4.85-3.27-7.47-2.75c-2.62,0.52-5.76,2.61-9.41,6.26l-14.53,14.53l-8.42-8.42l30.88-30.88l6.44,6.44l-2.82,5.08
			l0.47,0.47c2.43-0.55,4.85-0.39,7.26,0.5c2.41,0.88,4.67,2.38,6.77,4.48c3.59,3.59,5.34,7.29,5.26,11.09s-1.96,7.54-5.62,11.2
			L842.24,498.89z"/>
	</g>
	<g>
		<path class="st6" d="M902.94,126.63l-23.26-23.26l40.38-40.38l23.26,23.26l-7.02,7.02l-14.69-14.7l-8.87,8.87l13.67,13.67
			l-7.02,7.02l-13.67-13.67l-10.41,10.41l14.69,14.69L902.94,126.63z"/>
		<path class="st6" d="M941.42,146.77c-3.17,3.17-6.68,4.48-10.54,3.94c-3.86-0.54-7.98-3.01-12.36-7.39
			c-2.25-2.25-4.01-4.31-5.29-6.2c-1.28-1.89-2.32-3.82-3.11-5.79l6.96-6.96c0.83,2.3,1.98,4.68,3.44,7.14
			c1.46,2.46,2.94,4.43,4.43,5.92c3.06,3.06,5.47,3.7,7.24,1.93c0.66-0.66,1-1.4,1.01-2.22c0.01-0.82-0.22-1.99-0.69-3.51
			c-0.47-1.52-1.18-3.46-2.14-5.81c-1.38-3.37-2.21-6.04-2.47-8c-0.27-1.96-0.11-3.74,0.48-5.34c0.59-1.6,1.68-3.2,3.29-4.81
			c2.74-2.74,5.93-3.8,9.56-3.18c3.63,0.63,7.39,2.89,11.3,6.79c3.72,3.72,6.53,8.15,8.42,13.29l-8.62,3.54
			c-0.88-2.21-1.79-4.2-2.71-5.97c-0.92-1.77-2.08-3.35-3.48-4.75c-2.49-2.49-4.4-3.05-5.75-1.71c-0.76,0.75-1.01,1.81-0.76,3.16
			s1.18,3.93,2.8,7.72c1.44,3.39,2.29,6.07,2.57,8.04c0.28,1.97,0.13,3.78-0.44,5.41C943.99,143.66,942.94,145.24,941.42,146.77z"/>
		<path class="st6" d="M957.99,169.36c1.47,1.47,3.56,2.92,6.27,4.34l-6.27,6.27c-3.04-1.16-6.09-3.27-9.14-6.32
			c-3.37-3.37-4.97-6.68-4.81-9.92c0.17-3.24,1.95-6.56,5.36-9.97l14.89-14.89l-4.03-4.03l3.56-3.56l7.46,1.82l8.95-4.09l5.39,5.39
			l-6.57,6.57l8.65,8.65l-6.33,6.33l-8.65-8.65l-14.89,14.89c-1.2,1.2-1.75,2.42-1.64,3.66
			C956.28,167.08,956.88,168.26,957.99,169.36z"/>
		<path class="st6" d="M982.99,206.68l2.57-5.83l-0.22-0.22c-3.2,0.37-5.9,0.15-8.09-0.66s-4.49-2.42-6.91-4.83
			c-2.96-2.96-4.45-6.14-4.46-9.54c-0.01-3.4,1.55-6.66,4.68-9.79c3.28-3.28,6.84-4.55,10.69-3.81c3.85,0.74,8.17,3.33,12.95,7.79
			l5.52,5.19l1.35-1.35c3.13-3.13,3.09-6.3-0.11-9.5c-2.47-2.47-6.11-4.62-10.94-6.46l2.9-8.48c5.41,1.69,10.28,4.71,14.61,9.03
			c4.14,4.14,6.42,8.22,6.82,12.24c0.4,4.01-1.23,7.86-4.92,11.55l-20.58,20.58L982.99,206.68z M994.81,189.88l-3.37-3.15
			c-2.52-2.38-4.79-3.76-6.79-4.14c-2.01-0.39-3.84,0.25-5.5,1.91c-2.38,2.38-2.2,4.92,0.52,7.65c1.95,1.95,4.07,2.95,6.37,3
			c2.29,0.05,4.37-0.86,6.23-2.72L994.81,189.88z"/>
		<path class="st6" d="M1046.18,206.95c3.65,3.65,5.08,7.92,4.29,12.83s-3.65,9.84-8.6,14.79c-5.1,5.1-10.11,7.99-15.04,8.66
			c-4.93,0.67-9.22-0.82-12.89-4.49c-3.63-3.63-5.16-7.79-4.59-12.48l-0.58-0.58l-4.81,1.99l-6.44-6.44l42.98-42.98l8.42,8.43
			l-10,10c-1.27,1.27-3.42,3.2-6.44,5.77l0.33,0.33C1037.87,201.7,1042.32,203.09,1046.18,206.95z M1036.74,210.99
			c-2.08-2.08-4.24-2.96-6.48-2.64c-2.24,0.32-4.85,1.94-7.83,4.85l-0.91,0.91c-3.31,3.31-5.2,6.18-5.65,8.6
			c-0.45,2.42,0.39,4.7,2.53,6.84c1.73,1.73,3.9,2.31,6.52,1.74c2.61-0.57,5.44-2.38,8.48-5.41c3.04-3.04,4.8-5.83,5.29-8.38
			C1039.17,214.94,1038.52,212.77,1036.74,210.99z"/>
		<path class="st6" d="M1041.76,265.46l-8.42-8.42l42.98-42.98l8.42,8.42L1041.76,265.46z"/>
		<path class="st6" d="M1059.03,282.72l-8.42-8.42l30.88-30.88l8.42,8.42L1059.03,282.72z M1089.11,235.07
			c2.74-2.74,5.64-2.59,8.7,0.47c3.06,3.06,3.21,5.96,0.47,8.7c-1.31,1.31-2.71,1.94-4.2,1.91c-1.49-0.04-3-0.82-4.53-2.35
			C1086.49,240.75,1086.35,237.84,1089.11,235.07z"/>
		<path class="st6" d="M1098.58,303.93c-3.17,3.17-6.68,4.48-10.54,3.94c-3.86-0.54-7.98-3.01-12.36-7.39
			c-2.25-2.25-4.01-4.31-5.29-6.2c-1.28-1.89-2.32-3.82-3.11-5.79l6.96-6.96c0.83,2.3,1.98,4.68,3.44,7.14
			c1.46,2.46,2.94,4.43,4.43,5.92c3.06,3.06,5.47,3.7,7.24,1.93c0.66-0.66,1-1.4,1.01-2.22c0.01-0.82-0.22-1.99-0.69-3.51
			c-0.47-1.52-1.18-3.46-2.14-5.81c-1.38-3.37-2.21-6.04-2.47-8c-0.27-1.96-0.11-3.74,0.48-5.34c0.59-1.6,1.69-3.2,3.29-4.81
			c2.74-2.74,5.93-3.8,9.56-3.18c3.63,0.63,7.39,2.89,11.3,6.79c3.72,3.72,6.53,8.15,8.42,13.29l-8.62,3.54
			c-0.88-2.21-1.79-4.2-2.71-5.97c-0.92-1.77-2.08-3.35-3.48-4.75c-2.49-2.49-4.4-3.06-5.75-1.71c-0.76,0.75-1.01,1.81-0.76,3.16
			c0.25,1.35,1.18,3.93,2.8,7.72c1.44,3.39,2.29,6.07,2.57,8.04c0.28,1.97,0.13,3.78-0.44,5.41
			C1101.16,300.82,1100.11,302.41,1098.58,303.93z"/>
		<path class="st6" d="M1124.49,348.18l-8.42-8.42l18.04-18.04c4.46-4.46,5.03-8.34,1.71-11.66c-2.36-2.36-4.86-3.26-7.51-2.71
			c-2.65,0.55-5.77,2.62-9.36,6.21l-14.53,14.53l-8.42-8.42l42.98-42.98l8.42,8.42l-8.76,8.76c-0.68,0.68-2.35,2.22-5,4.61
			l-2.68,2.29l0.44,0.44c4.9-1.14,9.39,0.33,13.48,4.42c3.63,3.63,5.4,7.36,5.33,11.19s-1.93,7.57-5.58,11.21L1124.49,348.18z"/>
		<path class="st6" d="M1160.81,384.51l-8.42-8.42l18.04-18.04c2.23-2.23,3.53-4.27,3.89-6.13c0.37-1.86-0.25-3.59-1.85-5.19
			c-2.15-2.15-4.51-2.93-7.07-2.32c-2.56,0.61-5.65,2.72-9.28,6.35l-14.53,14.53l-8.42-8.42l30.88-30.88l6.44,6.44l-2.82,5.08
			l0.47,0.47c2.25-0.59,4.55-0.5,6.92,0.26c2.37,0.76,4.56,2.16,6.59,4.18c4.62,4.62,6.24,9.26,4.86,13.92l0.75,0.75
			c2.27-0.61,4.6-0.5,7,0.32c2.4,0.82,4.62,2.24,6.64,4.27c3.5,3.5,5.25,7.04,5.25,10.63c0,3.59-1.98,7.37-5.94,11.33l-20.14,20.14
			l-8.45-8.45l18.04-18.04c2.23-2.23,3.53-4.27,3.89-6.13c0.37-1.86-0.25-3.59-1.85-5.19c-2.06-2.06-4.34-2.87-6.84-2.42
			c-2.5,0.45-5.34,2.28-8.55,5.48L1160.81,384.51z"/>
		<path class="st6" d="M1202.13,426.93c-4.97-4.97-7.49-10.23-7.54-15.77c-0.06-5.54,2.43-10.83,7.46-15.85
			c5.17-5.17,10.47-7.88,15.88-8.12c5.41-0.24,10.4,1.92,14.97,6.49c4.36,4.36,6.52,9,6.46,13.92c-0.06,4.92-2.27,9.57-6.66,13.95
			l-4.09,4.09l-19.92-19.92c-2.3,2.49-3.46,5.06-3.48,7.73c-0.02,2.67,1.17,5.2,3.56,7.6c1.86,1.86,3.81,3.42,5.86,4.7
			c2.04,1.27,4.39,2.38,7.04,3.34l-6.52,6.52c-2.21-0.74-4.33-1.76-6.37-3.08C1206.77,431.21,1204.55,429.35,1202.13,426.93z
			 M1226.97,399.73c-1.79-1.79-3.75-2.62-5.9-2.5c-2.15,0.12-4.33,1.15-6.56,3.08l11.82,11.82c2.04-2.12,3.11-4.27,3.19-6.45
			C1229.6,403.5,1228.75,401.51,1226.97,399.73z"/>
		<path class="st6" d="M1250.64,474.33l-8.42-8.42l18.04-18.04c2.23-2.23,3.5-4.3,3.83-6.2c0.32-1.91-0.38-3.73-2.11-5.46
			c-2.36-2.36-4.85-3.27-7.47-2.75c-2.62,0.53-5.76,2.61-9.4,6.26l-14.53,14.53l-8.42-8.42l30.88-30.88l6.44,6.44l-2.82,5.08
			l0.47,0.47c2.43-0.55,4.85-0.39,7.26,0.5c2.41,0.88,4.67,2.38,6.77,4.47c3.59,3.59,5.34,7.29,5.26,11.09
			c-0.08,3.8-1.96,7.54-5.62,11.2L1250.64,474.33z"/>
		<path class="st6" d="M1278.48,489.85c1.47,1.47,3.56,2.92,6.27,4.34l-6.27,6.27c-3.04-1.16-6.09-3.27-9.14-6.32
			c-3.37-3.37-4.97-6.68-4.81-9.92c0.17-3.24,1.95-6.56,5.36-9.97l14.89-14.89l-4.03-4.03l3.56-3.56l7.46,1.82l8.95-4.09l5.39,5.39
			l-6.57,6.57l8.65,8.65l-6.33,6.33l-8.65-8.65l-14.89,14.89c-1.2,1.2-1.75,2.42-1.64,3.66
			C1276.77,487.58,1277.38,488.75,1278.48,489.85z"/>
	</g>
	<g>
		<path class="st7" d="M1463.57,208.39c-6.68,6.68-13.48,10.16-20.38,10.44c-6.91,0.28-13.45-2.68-19.64-8.87
			c-6.19-6.19-9.14-12.73-8.87-19.64c0.28-6.91,3.78-13.72,10.5-20.44c6.72-6.72,13.52-10.19,20.38-10.41
			c6.87-0.22,13.41,2.77,19.61,8.98c6.21,6.21,9.17,12.74,8.88,19.6C1473.76,194.91,1470.27,201.69,1463.57,208.39z M1434.09,178.92
			c-4.51,4.51-7.05,8.77-7.62,12.76c-0.57,4,0.85,7.7,4.25,11.1c6.83,6.83,14.79,5.71,23.86-3.37c9.1-9.1,10.25-17.04,3.45-23.84
			c-3.41-3.41-7.12-4.83-11.14-4.27S1438.61,174.41,1434.09,178.92z"/>
		<path class="st7" d="M1467.43,253.86c-3.63-3.63-5.16-7.79-4.59-12.49l-0.44-0.44c-2.29,2.87-3.63,4.51-4.03,4.92l-12.51,12.51
			l-8.43-8.43l44.47-44.47l6.85,6.85l-2.82,5.19l0.39,0.39c5.03-1.09,9.47,0.3,13.34,4.17c3.65,3.65,5.09,7.91,4.34,12.79
			c-0.76,4.88-3.64,9.82-8.65,14.83c-3.3,3.3-6.64,5.68-10.04,7.14c-3.4,1.46-6.63,1.94-9.68,1.42S1469.85,256.27,1467.43,253.86z
			 M1490.22,226.1c-2.08-2.08-4.24-2.96-6.48-2.64c-2.24,0.32-4.85,1.94-7.83,4.85l-0.91,0.91c-3.32,3.31-5.2,6.18-5.65,8.6
			c-0.45,2.42,0.39,4.7,2.53,6.84c3.77,3.78,8.77,2.55,15-3.67c3.04-3.04,4.85-5.78,5.44-8.23
			C1492.91,230.3,1492.21,228.09,1490.22,226.1z"/>
		<path class="st7" d="M1500.25,286.67c-4.97-4.97-7.49-10.23-7.54-15.77c-0.06-5.54,2.43-10.83,7.46-15.85
			c5.17-5.17,10.47-7.88,15.88-8.12c5.41-0.24,10.4,1.92,14.97,6.49c4.36,4.36,6.52,9,6.46,13.92c-0.06,4.92-2.27,9.57-6.66,13.95
			l-4.09,4.09l-19.92-19.92c-2.3,2.49-3.46,5.06-3.48,7.73c-0.02,2.67,1.17,5.2,3.56,7.6c1.86,1.86,3.81,3.43,5.86,4.7
			s4.39,2.38,7.04,3.34l-6.52,6.52c-2.21-0.74-4.33-1.76-6.37-3.08C1504.88,290.95,1502.66,289.08,1500.25,286.67z M1525.08,259.46
			c-1.79-1.79-3.75-2.62-5.9-2.5s-4.33,1.15-6.56,3.08l11.82,11.82c2.04-2.12,3.11-4.27,3.19-6.45
			C1527.72,263.23,1526.87,261.25,1525.08,259.46z"/>
		<path class="st7" d="M1568.94,291.34c1.14,1.14,2.01,2.17,2.6,3.09l-8.53,7.26c-0.5-0.87-1.23-1.79-2.21-2.76
			c-2.69-2.69-5.47-4.09-8.35-4.21c-2.88-0.12-5.57,1.06-8.05,3.55l-15.72,15.72l-8.42-8.42l30.88-30.88l6.38,6.38l-3.95,6.44
			l0.41,0.41c2.69-0.77,5.38-0.87,8.07-0.3C1564.72,288.18,1567.03,289.42,1568.94,291.34z"/>
		<path class="st7" d="M1565.54,350.86l2.57-5.83l-0.22-0.22c-3.21,0.37-5.9,0.15-8.09-0.66c-2.19-0.81-4.49-2.42-6.9-4.83
			c-2.97-2.97-4.45-6.15-4.46-9.54c-0.01-3.4,1.55-6.66,4.68-9.79c3.28-3.28,6.84-4.55,10.69-3.81c3.85,0.74,8.17,3.33,12.95,7.79
			l5.52,5.19l1.35-1.35c3.13-3.13,3.09-6.3-0.11-9.5c-2.47-2.47-6.11-4.62-10.94-6.46l2.9-8.48c5.41,1.69,10.28,4.7,14.61,9.03
			c4.14,4.14,6.42,8.22,6.82,12.24c0.4,4.01-1.23,7.86-4.92,11.55l-20.58,20.58L1565.54,350.86z M1577.37,334.07l-3.37-3.15
			c-2.52-2.38-4.79-3.76-6.79-4.14c-2.01-0.39-3.84,0.25-5.5,1.91c-2.38,2.38-2.2,4.93,0.53,7.65c1.95,1.95,4.07,2.95,6.37,3
			c2.29,0.05,4.37-0.86,6.23-2.72L1577.37,334.07z"/>
		<path class="st7" d="M1599.27,372.27c1.47,1.47,3.56,2.92,6.27,4.34l-6.27,6.27c-3.04-1.16-6.09-3.27-9.14-6.33
			c-3.37-3.37-4.97-6.67-4.8-9.92c0.16-3.24,1.95-6.56,5.36-9.97l14.89-14.89l-4.03-4.03l3.56-3.56l7.46,1.82l8.95-4.09l5.39,5.39
			l-6.57,6.57l8.64,8.65l-6.32,6.32l-8.65-8.64l-14.89,14.89c-1.2,1.2-1.75,2.42-1.64,3.66
			C1597.56,369.99,1598.17,371.17,1599.27,372.27z"/>
		<path class="st7" d="M1613.08,398.4l-8.42-8.42l30.88-30.88l8.42,8.42L1613.08,398.4z M1643.16,350.75
			c2.74-2.74,5.64-2.59,8.7,0.47c3.06,3.06,3.21,5.96,0.47,8.7c-1.31,1.31-2.71,1.94-4.2,1.91c-1.49-0.04-3-0.82-4.53-2.35
			C1640.54,356.42,1640.4,353.52,1643.16,350.75z"/>
		<path class="st7" d="M1665.48,419.81c-5.03,5.03-10.29,7.63-15.77,7.82c-5.49,0.19-10.6-2.09-15.33-6.82
			c-2.96-2.96-4.93-6.23-5.9-9.79c-0.97-3.56-0.84-7.17,0.37-10.81s3.44-7.09,6.68-10.33c5.04-5.04,10.28-7.65,15.72-7.82
			c5.43-0.17,10.53,2.14,15.3,6.91c2.96,2.96,4.93,6.22,5.91,9.78c0.98,3.55,0.87,7.15-0.33,10.77
			C1670.94,413.13,1668.72,416.57,1665.48,419.81z M1644.13,398.45c-3.06,3.06-4.87,5.87-5.43,8.44c-0.56,2.57,0.29,4.99,2.55,7.25
			c2.25,2.25,4.64,3.08,7.18,2.51c2.54-0.57,5.35-2.39,8.42-5.47c3.06-3.06,4.85-5.85,5.39-8.37c0.53-2.52-0.33-4.92-2.6-7.18
			c-2.25-2.25-4.63-3.11-7.14-2.58C1650,393.58,1647.2,395.38,1644.13,398.45z"/>
		<path class="st7" d="M1685.45,470.77l-8.42-8.42l18.04-18.04c2.23-2.23,3.5-4.29,3.83-6.2c0.32-1.91-0.38-3.72-2.11-5.46
			c-2.36-2.36-4.85-3.27-7.47-2.75c-2.63,0.53-5.76,2.61-9.41,6.26l-14.53,14.53l-8.42-8.42l30.88-30.88l6.44,6.44l-2.82,5.08
			l0.47,0.47c2.43-0.55,4.85-0.39,7.27,0.5c2.41,0.88,4.67,2.38,6.77,4.47c3.59,3.59,5.34,7.29,5.26,11.09s-1.96,7.54-5.62,11.2
			L1685.45,470.77z"/>
		<path class="st7" d="M1724.84,491.82c-3.17,3.17-6.68,4.48-10.54,3.94c-3.86-0.54-7.98-3.01-12.36-7.39
			c-2.25-2.25-4.01-4.31-5.29-6.2c-1.28-1.89-2.32-3.82-3.11-5.79l6.96-6.96c0.83,2.3,1.98,4.68,3.44,7.14
			c1.46,2.46,2.94,4.43,4.43,5.92c3.06,3.06,5.47,3.7,7.24,1.93c0.66-0.66,1-1.4,1.01-2.22c0.01-0.82-0.22-1.99-0.69-3.51
			c-0.47-1.52-1.18-3.46-2.14-5.81c-1.38-3.37-2.21-6.04-2.47-8s-0.11-3.74,0.48-5.35c0.59-1.6,1.68-3.2,3.29-4.8
			c2.74-2.74,5.93-3.8,9.56-3.18c3.63,0.63,7.39,2.89,11.3,6.8c3.72,3.72,6.53,8.15,8.42,13.29l-8.62,3.54
			c-0.88-2.21-1.79-4.2-2.71-5.97c-0.92-1.77-2.08-3.35-3.48-4.75c-2.49-2.49-4.4-3.06-5.75-1.71c-0.75,0.76-1.01,1.81-0.76,3.16
			c0.25,1.35,1.18,3.93,2.8,7.72c1.44,3.39,2.29,6.07,2.57,8.04c0.28,1.97,0.13,3.78-0.44,5.41S1726.37,490.29,1724.84,491.82z"/>
	</g>
	<g>
		<path class="st8" d="M1903.35,264.13l-23.26-23.26l40.38-40.38l23.26,23.26l-7.02,7.02l-14.69-14.7l-8.87,8.87l13.67,13.67
			l-7.02,7.02l-13.67-13.67l-10.41,10.41l14.7,14.69L1903.35,264.13z"/>
		<path class="st8" d="M1918.46,279.24l19.11-42.65l8.81,8.81l-11.63,23.56c-1.57,2.89-3.26,5.41-5.08,7.57l0.17,0.17
			c1.86-1.68,4.38-3.37,7.57-5.08l23.53-11.66l8.81,8.81l-42.65,19.11L1918.46,279.24z"/>
		<path class="st8" d="M1986.85,316.64c-5.03,5.03-10.29,7.63-15.77,7.82c-5.49,0.18-10.6-2.09-15.33-6.82
			c-2.96-2.96-4.93-6.23-5.9-9.79c-0.97-3.56-0.84-7.17,0.37-10.81s3.44-7.09,6.68-10.33c5.04-5.04,10.28-7.65,15.72-7.82
			c5.43-0.17,10.53,2.14,15.3,6.91c2.96,2.96,4.93,6.22,5.91,9.78c0.98,3.55,0.87,7.15-0.33,10.77
			C1992.3,309.96,1990.09,313.4,1986.85,316.64z M1965.49,295.29c-3.06,3.06-4.87,5.87-5.43,8.44c-0.56,2.57,0.29,4.99,2.55,7.25
			c2.25,2.25,4.64,3.08,7.18,2.51c2.54-0.57,5.35-2.39,8.42-5.47c3.06-3.06,4.85-5.85,5.39-8.37s-0.33-4.92-2.6-7.18
			c-2.25-2.25-4.63-3.11-7.14-2.58C1971.36,290.41,1968.57,292.21,1965.49,295.29z"/>
		<path class="st8" d="M1986.74,347.52l-8.42-8.42l42.98-42.98l8.42,8.42L1986.74,347.52z"/>
		<path class="st8" d="M2017.45,378.24l2.82-5.08l-0.44-0.44c-2.34,0.53-4.73,0.36-7.17-0.51s-4.72-2.37-6.84-4.49
			c-3.63-3.63-5.39-7.33-5.29-11.12c0.1-3.78,1.98-7.5,5.62-11.15l20.14-20.14l8.42,8.42l-18.04,18.04c-2.23,2.23-3.5,4.29-3.83,6.2
			c-0.32,1.91,0.38,3.72,2.11,5.46c2.36,2.36,4.85,3.27,7.47,2.75c2.62-0.53,5.76-2.61,9.41-6.26l14.53-14.53l8.42,8.42
			l-30.88,30.88L2017.45,378.24z"/>
		<path class="st8" d="M2051.92,400.39c1.47,1.47,3.56,2.92,6.27,4.34l-6.27,6.27c-3.04-1.16-6.09-3.27-9.14-6.33
			c-3.37-3.37-4.97-6.68-4.81-9.92c0.17-3.24,1.95-6.56,5.36-9.97l14.89-14.89l-4.03-4.03l3.56-3.56l7.46,1.82l8.95-4.09l5.39,5.39
			l-6.57,6.57l8.65,8.65l-6.33,6.33l-8.65-8.65l-14.89,14.89c-1.2,1.2-1.75,2.42-1.64,3.66
			C2050.21,398.11,2050.82,399.28,2051.92,400.39z"/>
		<path class="st8" d="M2065.73,426.52l-8.42-8.43l30.88-30.88l8.42,8.43L2065.73,426.52z M2095.81,378.87
			c2.74-2.74,5.64-2.59,8.7,0.47c3.06,3.06,3.21,5.96,0.47,8.7c-1.31,1.31-2.71,1.94-4.2,1.91c-1.49-0.04-3-0.82-4.53-2.35
			C2093.2,384.54,2093.05,381.63,2095.81,378.87z"/>
		<path class="st8" d="M2118.13,447.93c-5.03,5.03-10.29,7.63-15.77,7.82c-5.49,0.18-10.6-2.09-15.33-6.82
			c-2.96-2.96-4.93-6.23-5.9-9.79s-0.84-7.17,0.37-10.81c1.22-3.65,3.44-7.09,6.69-10.33c5.04-5.04,10.28-7.65,15.72-7.82
			c5.43-0.17,10.53,2.14,15.3,6.91c2.96,2.96,4.93,6.22,5.91,9.78c0.98,3.55,0.87,7.15-0.33,10.77
			C2123.59,441.25,2121.37,444.69,2118.13,447.93z M2096.78,426.57c-3.06,3.06-4.87,5.87-5.43,8.44c-0.56,2.57,0.29,4.99,2.55,7.25
			c2.25,2.25,4.64,3.08,7.18,2.51c2.54-0.57,5.35-2.39,8.42-5.47c3.06-3.06,4.85-5.85,5.38-8.37c0.54-2.52-0.33-4.92-2.6-7.18
			c-2.25-2.25-4.63-3.11-7.14-2.58S2099.85,423.5,2096.78,426.57z"/>
		<path class="st8" d="M2138.1,498.89l-8.43-8.42l18.04-18.04c2.23-2.23,3.5-4.29,3.83-6.2s-0.38-3.72-2.11-5.46
			c-2.36-2.36-4.85-3.27-7.47-2.75c-2.63,0.52-5.76,2.61-9.41,6.26l-14.53,14.53l-8.42-8.42l30.88-30.88l6.44,6.44l-2.82,5.08
			l0.47,0.47c2.43-0.55,4.85-0.39,7.26,0.5c2.41,0.88,4.67,2.38,6.77,4.48c3.59,3.59,5.35,7.29,5.26,11.09
			c-0.08,3.8-1.96,7.54-5.62,11.2L2138.1,498.89z"/>
	</g>
</g>
<g id="Text" class="st9">
	<text transform="matrix(0.7071 0.7071 -0.7071 0.7071 55.7119 145.4971)" class="st10 st11 st12">Case making</text>
	<text transform="matrix(0.7071 0.7071 -0.7071 0.7071 656.6749 313.3253)" class="st13 st11 st12">Design</text>
	<text transform="matrix(0.7071 0.7071 -0.7071 0.7071 874.5986 98.292)" class="st14 st11 st12">Establishment</text>
	<text transform="matrix(0.7071 0.7071 -0.7071 0.7071 1401.5834 186.9017)" class="st15 st11 st12">Operations</text>
	<text transform="matrix(0.7071 0.7071 -0.7071 0.7071 1875.0066 235.7918)" class="st16 st11 st12">Evolution</text>
</g>
</svg>
