<?xml version="1.0" encoding="utf-8"?>
<!-- Generator: Adobe Illustrator 23.0.3, SVG Export Plug-In . SVG Version: 6.00 Build 0)  -->
<svg version="1.1" id="Layer_1" xmlns="http://www.w3.org/2000/svg" xmlns:xlink="http://www.w3.org/1999/xlink" x="0px" y="0px"
	 viewBox="0 0 409.02 261.96" style="enable-background:new 0 0 409.02 261.96;" xml:space="preserve">
<style type="text/css">
	.st0{fill:#9B9014;}
	.st1{fill:#C2BD85;}
	.st2{fill:#6F8CC7;}
	.st3{fill:#282970;}
</style>
<g>
	<g>
		<polygon class="st0" points="121.34,228.05 163.38,203.78 121.35,179.51 		"/>
		<polygon class="st0" points="163.38,203.78 205.42,179.51 163.39,155.24 		"/>
		<g>
			<polygon class="st1" points="79.3,203.79 121.35,179.51 79.31,155.25 			"/>
		</g>
		<polygon class="st1" points="121.35,179.51 163.39,155.24 121.35,130.98 		"/>
		<polygon class="st1" points="163.39,155.24 205.43,130.97 163.39,106.71 		"/>
		<polygon class="st0" points="37.27,179.52 79.31,155.25 37.27,130.99 		"/>
		<polygon class="st1" points="79.31,155.25 121.35,130.98 79.31,106.72 		"/>
		<polygon class="st1" points="121.35,130.98 163.39,106.71 121.35,82.44 		"/>
		<polygon class="st0" points="163.39,106.71 205.43,82.43 163.39,58.17 		"/>
		<polygon class="st0" points="37.27,130.99 79.31,106.72 37.27,82.45 		"/>
		<polygon class="st1" points="79.31,106.72 121.35,82.44 79.31,58.18 		"/>
		<g>
			<polygon class="st0" points="121.35,82.44 163.39,58.17 121.35,33.91 			"/>
		</g>
		<g>
			<polygon class="st2" points="121.35,33.91 79.31,58.18 121.35,82.44 			"/>
		</g>
		<g>
			<polygon class="st2" points="79.31,58.18 37.27,82.45 79.31,106.72 			"/>
		</g>
		<polygon class="st3" points="163.39,58.17 121.35,82.44 163.39,106.71 		"/>
		<polygon class="st3" points="121.35,82.44 79.31,106.72 121.35,130.98 		"/>
		<g>
			<polygon class="st3" points="79.31,106.72 37.27,130.99 79.31,155.25 			"/>
		</g>
		<g>
			<polygon class="st2" points="205.43,82.43 163.39,106.71 205.43,130.97 			"/>
		</g>
		<polygon class="st3" points="163.39,106.71 121.35,130.98 163.39,155.24 		"/>
		<polygon class="st3" points="121.35,130.98 79.31,155.25 121.35,179.51 		"/>
		<g>
			<polygon class="st2" points="79.31,155.25 37.27,179.52 79.3,203.79 			"/>
		</g>
		<g>
			<polygon class="st2" points="205.43,130.97 163.39,155.24 205.42,179.51 			"/>
		</g>
		<polygon class="st3" points="163.39,155.24 121.35,179.51 163.38,203.78 		"/>
		<polygon class="st2" points="121.35,179.51 79.3,203.79 121.34,228.05 		"/>
	</g>
	<g>
		<g>
			<path class="st3" d="M353.59,135.27h11.95v16.44c-3.53,0.85-7.15,1.28-10.85,1.28c-6.82,0-11.99-1.86-15.51-5.59
				c-3.52-3.73-5.28-9.2-5.28-16.41c0-6.87,1.83-12.24,5.48-16.12c3.66-3.87,8.74-5.81,15.24-5.81c4.46,0,9.1,1.02,13.92,3.07
				l2.41-5.48c-4.92-2.09-10.23-3.14-15.93-3.14c-5.63,0-10.54,1.1-14.72,3.31c-4.19,2.2-7.4,5.39-9.63,9.57
				c-2.23,4.18-3.34,9.04-3.34,14.6c0,8.67,2.25,15.42,6.76,20.23c4.51,4.81,10.8,7.21,18.89,7.21c3.85,0,7.24-0.23,10.16-0.69
				c2.92-0.46,5.8-1.14,8.63-2.05v-25.98h-18.16V135.27z M311.54,107.08c-2.88-2.38-6.91-3.56-12.1-3.56
				c-3.17,0-6.18,0.49-9.04,1.48c-2.86,0.99-5.39,2.35-7.58,4.08l3.07,4.09c2.66-1.71,5.02-2.87,7.09-3.51
				c2.07-0.63,4.27-0.95,6.61-0.95c3.07,0,5.5,0.75,7.29,2.23c1.79,1.49,2.69,3.53,2.69,6.14c0,3.27-1.22,5.82-3.66,7.66
				c-2.44,1.84-5.74,2.76-9.9,2.76h-5.33v5.22h5.26c10.18,0,15.28,3.24,15.28,9.72c0,7.24-4.62,10.85-13.85,10.85
				c-2.34,0-4.82-0.3-7.44-0.89c-2.62-0.6-5.09-1.47-7.4-2.61v5.77c2.22,1.07,4.5,1.82,6.85,2.25c2.35,0.43,4.94,0.64,7.77,0.64
				c6.51,0,11.52-1.37,15.06-4.11c3.53-2.74,5.3-6.66,5.3-11.75c0-3.56-1.04-6.43-3.1-8.62c-2.07-2.19-5.25-3.56-9.54-4.09v-0.29
				c3.51-0.73,6.22-2.18,8.13-4.35c1.91-2.17,2.87-4.96,2.87-8.37C315.86,112.71,314.42,109.46,311.54,107.08 M269.1,152.16h-23.57
				V132.5h22.15v-5.48h-22.15V109.8h23.57v-5.52h-29.78v53.43h29.78V152.16z"/>
		</g>
	</g>
</g>
</svg>
